# xmcd
#
# Track frame offsets: 
#        150
#        12340
#        25957
#        49110
#        62005
#        78082
#        124282
#        136637
#        149720
#        174777
#        194465
#        219017
#        231920
#        255090
#        264430
#        293422
#        317582
#
# Disc length: 4520 seconds
#
# Revision: 3
# Processed by: cddbd v1.5.2PL0 Copyright (c) Steve Scherf et al.
# Submitted via: ExactAudioCopy v1.3
#
DISCID=df11a611
DTITLE=John Lee Hooker - The Essential
DYEAR=1993
DGENRE=Blues
TTITLE0=Boom, Boom, Boom, Boom
TTITLE1=One Bourbon, One Scotch, One Beer
TTITLE2=Decoration Day
TTITLE3=Back Biters and Syndicators
TTITLE4=Doin' the Shout
TTITLE5=Never Get Out of These Blues Alive
TTITLE6=I'm in the Mood
TTITLE7=Mr Lucky
TTITLE8=I'm Bad Like Jesse James (Live)
TTITLE9=Shake it Baby
TTITLE10=Blue Bird
TTITLE11=The Motor City is Burning
TTITLE12=It Serves You Right to Suffer
TTITLE13=Think Twice Before You Go
TTITLE14=House Rent Boogie
TTITLE15=The Waterfront
TTITLE16=Bang, Bang, Bang, Bang
EXTD=MCA Records - MCD 30481 BM600\nThis compilation: 1993 BMG France\n
EXTD=Printed in Australia
EXTT0=
EXTT1=
EXTT2=
EXTT3=
EXTT4=
EXTT5=
EXTT6=
EXTT7=
EXTT8=
EXTT9=
EXTT10=
EXTT11=
EXTT12=
EXTT13=
EXTT14=
EXTT15=
EXTT16=
PLAYORDER=
